solid OpenSCAD_Model
  facet normal -0 0 1
    outer loop
      vertex 19.18 2.04382 3.75
      vertex 21 0.5 3.75
      vertex 21 5 3.75
    endloop
  endfacet
  facet normal 0 0 1
    outer loop
      vertex 21 0.5 3.75
      vertex 19.18 2.04382 3.75
      vertex 20.0713 0.5 3.75
    endloop
  endfacet
  facet normal 0 0 1
    outer loop
      vertex 21 5 3.75
      vertex 16.82 2.04382 3.75
      vertex 19.18 2.04382 3.75
    endloop
  endfacet
  facet normal 0 0 1
    outer loop
      vertex 16.82 2.04382 3.75
      vertex 14.0613 0.5 3.75
      vertex 15.9287 0.5 3.75
    endloop
  endfacet
  facet normal 0 0 1
    outer loop
      vertex 13.175 2.03516 3.75
      vertex 16.82 2.04382 3.75
      vertex 21 5 3.75
    endloop
  endfacet
  facet normal 0 0 1
    outer loop
      vertex 16.82 2.04382 3.75
      vertex 13.175 2.03516 3.75
      vertex 14.0613 0.5 3.75
    endloop
  endfacet
  facet normal 0 0 1
    outer loop
      vertex 21 5 3.75
      vertex 10.825 2.03516 3.75
      vertex 13.175 2.03516 3.75
    endloop
  endfacet
  facet normal 0 0 1
    outer loop
      vertex 10.825 2.03516 3.75
      vertex 8.05132 0.5 3.75
      vertex 9.93868 0.5 3.75
    endloop
  endfacet
  facet normal 0 0 1
    outer loop
      vertex 10.825 2.03516 3.75
      vertex 7.17 2.0265 3.75
      vertex 8.05132 0.5 3.75
    endloop
  endfacet
  facet normal 0 0 1
    outer loop
      vertex 21 5 3.75
      vertex 7.17 2.0265 3.75
      vertex 10.825 2.03516 3.75
    endloop
  endfacet
  facet normal -0 0 1
    outer loop
      vertex -3 5 3.75
      vertex 7.17 2.0265 3.75
      vertex 21 5 3.75
    endloop
  endfacet
  facet normal 0 0 1
    outer loop
      vertex 4.83 2.0265 3.75
      vertex 2.04132 0.5 3.75
      vertex 3.94868 0.5 3.75
    endloop
  endfacet
  facet normal 0 0 1
    outer loop
      vertex 4.83 2.0265 3.75
      vertex 1.165 2.01784 3.75
      vertex 2.04132 0.5 3.75
    endloop
  endfacet
  facet normal 0 0 1
    outer loop
      vertex 7.17 2.0265 3.75
      vertex -3 5 3.75
      vertex 4.83 2.0265 3.75
    endloop
  endfacet
  facet normal 0 0 1
    outer loop
      vertex 4.83 2.0265 3.75
      vertex -3 5 3.75
      vertex 1.165 2.01784 3.75
    endloop
  endfacet
  facet normal 0 0 1
    outer loop
      vertex 1.165 2.01784 3.75
      vertex -3 5 3.75
      vertex -1.165 2.01784 3.75
    endloop
  endfacet
  facet normal 0 0 1
    outer loop
      vertex -3 0.5 3.75
      vertex -1.165 2.01784 3.75
      vertex -3 5 3.75
    endloop
  endfacet
  facet normal 0 0 1
    outer loop
      vertex -1.165 2.01784 3.75
      vertex -3 0.5 3.75
      vertex -2.04132 0.5 3.75
    endloop
  endfacet
  facet normal 0 0 1
    outer loop
      vertex 19.18 -2.04382 3.75
      vertex 21 -0.5 3.75
      vertex 20.0713 -0.5 3.75
    endloop
  endfacet
  facet normal 0 0 1
    outer loop
      vertex 21 -0.5 3.75
      vertex 19.18 -2.04382 3.75
      vertex 21 -5 3.75
    endloop
  endfacet
  facet normal -0 0 1
    outer loop
      vertex 16.82 -2.04382 3.75
      vertex 21 -5 3.75
      vertex 19.18 -2.04382 3.75
    endloop
  endfacet
  facet normal -0 0 1
    outer loop
      vertex 14.0613 -0.5 3.75
      vertex 16.82 -2.04382 3.75
      vertex 15.9287 -0.5 3.75
    endloop
  endfacet
  facet normal -0 0 1
    outer loop
      vertex 13.175 -2.03516 3.75
      vertex 16.82 -2.04382 3.75
      vertex 14.0613 -0.5 3.75
    endloop
  endfacet
  facet normal 0 0 1
    outer loop
      vertex 16.82 -2.04382 3.75
      vertex 13.175 -2.03516 3.75
      vertex 21 -5 3.75
    endloop
  endfacet
  facet normal -0 0 1
    outer loop
      vertex 10.825 -2.03516 3.75
      vertex 21 -5 3.75
      vertex 13.175 -2.03516 3.75
    endloop
  endfacet
  facet normal -0 0 1
    outer loop
      vertex 8.05132 -0.5 3.75
      vertex 10.825 -2.03516 3.75
      vertex 9.93868 -0.5 3.75
    endloop
  endfacet
  facet normal -0 0 1
    outer loop
      vertex 7.17 -2.0265 3.75
      vertex 10.825 -2.03516 3.75
      vertex 8.05132 -0.5 3.75
    endloop
  endfacet
  facet normal 0 0 1
    outer loop
      vertex 7.17 -2.0265 3.75
      vertex 21 -5 3.75
      vertex 10.825 -2.03516 3.75
    endloop
  endfacet
  facet normal 0 0 1
    outer loop
      vertex -3 -5 3.75
      vertex 7.17 -2.0265 3.75
      vertex 4.83 -2.0265 3.75
    endloop
  endfacet
  facet normal -0 0 1
    outer loop
      vertex 2.04132 -0.5 3.75
      vertex 4.83 -2.0265 3.75
      vertex 3.94868 -0.5 3.75
    endloop
  endfacet
  facet normal -0 0 1
    outer loop
      vertex 1.165 -2.01784 3.75
      vertex 4.83 -2.0265 3.75
      vertex 2.04132 -0.5 3.75
    endloop
  endfacet
  facet normal 0 0 1
    outer loop
      vertex -3 -5 3.75
      vertex 4.83 -2.0265 3.75
      vertex 1.165 -2.01784 3.75
    endloop
  endfacet
  facet normal 0 0 1
    outer loop
      vertex -3 -5 3.75
      vertex 1.165 -2.01784 3.75
      vertex -1.165 -2.01784 3.75
    endloop
  endfacet
  facet normal -0 0 1
    outer loop
      vertex -3 -0.5 3.75
      vertex -1.165 -2.01784 3.75
      vertex -2.04132 -0.5 3.75
    endloop
  endfacet
  facet normal 0 0 1
    outer loop
      vertex 7.17 -2.0265 3.75
      vertex -3 -5 3.75
      vertex 21 -5 3.75
    endloop
  endfacet
  facet normal 0 0 1
    outer loop
      vertex -3 -5 3.75
      vertex -1.165 -2.01784 3.75
      vertex -3 -0.5 3.75
    endloop
  endfacet
  facet normal 0 0 -1
    outer loop
      vertex -3 -5 -3.75
      vertex 21 5 -3.75
      vertex 21 -5 -3.75
    endloop
  endfacet
  facet normal -0 0 -1
    outer loop
      vertex 21 5 -3.75
      vertex -3 -5 -3.75
      vertex -3 5 -3.75
    endloop
  endfacet
  facet normal -1 0 0
    outer loop
      vertex -3 5 -3.75
      vertex -3 0.5 -2
      vertex -3 5 3.75
    endloop
  endfacet
  facet normal -1 0 0
    outer loop
      vertex -3 5 -3.75
      vertex -3 -0.5 -2
      vertex -3 0.5 -2
    endloop
  endfacet
  facet normal -1 0 0
    outer loop
      vertex -3 -5 -3.75
      vertex -3 -0.5 -2
      vertex -3 5 -3.75
    endloop
  endfacet
  facet normal -1 0 0
    outer loop
      vertex -3 -5 3.75
      vertex -3 -0.5 -2
      vertex -3 -5 -3.75
    endloop
  endfacet
  facet normal -1 0 0
    outer loop
      vertex -3 -0.5 -2
      vertex -3 -5 3.75
      vertex -3 -0.5 3.75
    endloop
  endfacet
  facet normal -1 -0 0
    outer loop
      vertex -3 5 3.75
      vertex -3 0.5 -2
      vertex -3 0.5 3.75
    endloop
  endfacet
  facet normal 0 1 -0
    outer loop
      vertex 21 5 -3.75
      vertex -3 5 3.75
      vertex 21 5 3.75
    endloop
  endfacet
  facet normal 0 1 0
    outer loop
      vertex -3 5 3.75
      vertex 21 5 -3.75
      vertex -3 5 -3.75
    endloop
  endfacet
  facet normal 0 -1 0
    outer loop
      vertex -3 -5 -3.75
      vertex 21 -5 3.75
      vertex -3 -5 3.75
    endloop
  endfacet
  facet normal 0 -1 -0
    outer loop
      vertex 21 -5 3.75
      vertex -3 -5 -3.75
      vertex 21 -5 -3.75
    endloop
  endfacet
  facet normal -0 0 1
    outer loop
      vertex 20.0713 0.5 -2
      vertex 21 -0.5 -2
      vertex 21 0.5 -2
    endloop
  endfacet
  facet normal 0 0 1
    outer loop
      vertex 20.0713 0.5 -2
      vertex 20.0713 -0.5 -2
      vertex 21 -0.5 -2
    endloop
  endfacet
  facet normal 0 0 1
    outer loop
      vertex 15.9287 0.5 -2
      vertex 20.0713 0.5 -2
      vertex 19.18 2.04382 -2
    endloop
  endfacet
  facet normal 0 0 1
    outer loop
      vertex 20.0713 0.5 -2
      vertex 15.9287 0.5 -2
      vertex 20.0713 -0.5 -2
    endloop
  endfacet
  facet normal 0 0 1
    outer loop
      vertex 15.9287 0.5 -2
      vertex 19.18 2.04382 -2
      vertex 16.82 2.04382 -2
    endloop
  endfacet
  facet normal 0 0 1
    outer loop
      vertex 15.9287 -0.5 -2
      vertex 20.0713 -0.5 -2
      vertex 15.9287 0.5 -2
    endloop
  endfacet
  facet normal 0 0 1
    outer loop
      vertex 20.0713 -0.5 -2
      vertex 15.9287 -0.5 -2
      vertex 19.18 -2.04382 -2
    endloop
  endfacet
  facet normal 0 0 1
    outer loop
      vertex 19.18 -2.04382 -2
      vertex 15.9287 -0.5 -2
      vertex 16.82 -2.04382 -2
    endloop
  endfacet
  facet normal -0 0 1
    outer loop
      vertex 14.0613 0.5 -2
      vertex 15.9287 -0.5 -2
      vertex 15.9287 0.5 -2
    endloop
  endfacet
  facet normal 0 0 1
    outer loop
      vertex 14.0613 0.5 -2
      vertex 14.0613 -0.5 -2
      vertex 15.9287 -0.5 -2
    endloop
  endfacet
  facet normal 0 0 1
    outer loop
      vertex 9.93868 0.5 -2
      vertex 14.0613 0.5 -2
      vertex 13.175 2.03516 -2
    endloop
  endfacet
  facet normal 0 0 1
    outer loop
      vertex 14.0613 0.5 -2
      vertex 9.93868 0.5 -2
      vertex 14.0613 -0.5 -2
    endloop
  endfacet
  facet normal 0 0 1
    outer loop
      vertex 9.93868 0.5 -2
      vertex 13.175 2.03516 -2
      vertex 10.825 2.03516 -2
    endloop
  endfacet
  facet normal 0 0 1
    outer loop
      vertex 9.93868 -0.5 -2
      vertex 14.0613 -0.5 -2
      vertex 9.93868 0.5 -2
    endloop
  endfacet
  facet normal 0 0 1
    outer loop
      vertex 14.0613 -0.5 -2
      vertex 9.93868 -0.5 -2
      vertex 13.175 -2.03516 -2
    endloop
  endfacet
  facet normal 0 0 1
    outer loop
      vertex 13.175 -2.03516 -2
      vertex 9.93868 -0.5 -2
      vertex 10.825 -2.03516 -2
    endloop
  endfacet
  facet normal -0 0 1
    outer loop
      vertex 8.05132 0.5 -2
      vertex 9.93868 -0.5 -2
      vertex 9.93868 0.5 -2
    endloop
  endfacet
  facet normal 0 0 1
    outer loop
      vertex 8.05132 0.5 -2
      vertex 8.05132 -0.5 -2
      vertex 9.93868 -0.5 -2
    endloop
  endfacet
  facet normal 0 0 1
    outer loop
      vertex 3.94868 0.5 -2
      vertex 8.05132 0.5 -2
      vertex 7.17 2.0265 -2
    endloop
  endfacet
  facet normal 0 0 1
    outer loop
      vertex 8.05132 0.5 -2
      vertex 3.94868 0.5 -2
      vertex 8.05132 -0.5 -2
    endloop
  endfacet
  facet normal 0 0 1
    outer loop
      vertex 3.94868 0.5 -2
      vertex 7.17 2.0265 -2
      vertex 4.83 2.0265 -2
    endloop
  endfacet
  facet normal 0 0 1
    outer loop
      vertex 3.94868 -0.5 -2
      vertex 8.05132 -0.5 -2
      vertex 3.94868 0.5 -2
    endloop
  endfacet
  facet normal 0 0 1
    outer loop
      vertex 8.05132 -0.5 -2
      vertex 3.94868 -0.5 -2
      vertex 7.17 -2.0265 -2
    endloop
  endfacet
  facet normal 0 0 1
    outer loop
      vertex 7.17 -2.0265 -2
      vertex 3.94868 -0.5 -2
      vertex 4.83 -2.0265 -2
    endloop
  endfacet
  facet normal -0 0 1
    outer loop
      vertex 2.04132 0.5 -2
      vertex 3.94868 -0.5 -2
      vertex 3.94868 0.5 -2
    endloop
  endfacet
  facet normal 0 0 1
    outer loop
      vertex 2.04132 0.5 -2
      vertex 2.04132 -0.5 -2
      vertex 3.94868 -0.5 -2
    endloop
  endfacet
  facet normal 0 0 1
    outer loop
      vertex -2.04132 0.5 -2
      vertex 2.04132 0.5 -2
      vertex 1.165 2.01784 -2
    endloop
  endfacet
  facet normal 0 0 1
    outer loop
      vertex 2.04132 0.5 -2
      vertex -2.04132 0.5 -2
      vertex 2.04132 -0.5 -2
    endloop
  endfacet
  facet normal 0 0 1
    outer loop
      vertex -2.04132 0.5 -2
      vertex 1.165 2.01784 -2
      vertex -1.165 2.01784 -2
    endloop
  endfacet
  facet normal 0 0 1
    outer loop
      vertex -2.04132 -0.5 -2
      vertex 2.04132 -0.5 -2
      vertex -2.04132 0.5 -2
    endloop
  endfacet
  facet normal 0 0 1
    outer loop
      vertex 2.04132 -0.5 -2
      vertex -2.04132 -0.5 -2
      vertex 1.165 -2.01784 -2
    endloop
  endfacet
  facet normal 0 0 1
    outer loop
      vertex 1.165 -2.01784 -2
      vertex -2.04132 -0.5 -2
      vertex -1.165 -2.01784 -2
    endloop
  endfacet
  facet normal -0 0 1
    outer loop
      vertex -3 0.5 -2
      vertex -2.04132 -0.5 -2
      vertex -2.04132 0.5 -2
    endloop
  endfacet
  facet normal 0 0 1
    outer loop
      vertex -2.04132 -0.5 -2
      vertex -3 0.5 -2
      vertex -3 -0.5 -2
    endloop
  endfacet
  facet normal 0 -1 0
    outer loop
      vertex -3 0.5 -2
      vertex -2.04132 0.5 3.75
      vertex -3 0.5 3.75
    endloop
  endfacet
  facet normal 0 -1 -0
    outer loop
      vertex -2.04132 0.5 3.75
      vertex -3 0.5 -2
      vertex -2.04132 0.5 -2
    endloop
  endfacet
  facet normal 0 -1 0
    outer loop
      vertex 2.04132 0.5 -2
      vertex 3.94868 0.5 3.75
      vertex 2.04132 0.5 3.75
    endloop
  endfacet
  facet normal 0 -1 -0
    outer loop
      vertex 3.94868 0.5 3.75
      vertex 2.04132 0.5 -2
      vertex 3.94868 0.5 -2
    endloop
  endfacet
  facet normal 0 1 -0
    outer loop
      vertex -2.04132 -0.5 -2
      vertex -3 -0.5 3.75
      vertex -2.04132 -0.5 3.75
    endloop
  endfacet
  facet normal 0 1 0
    outer loop
      vertex -3 -0.5 3.75
      vertex -2.04132 -0.5 -2
      vertex -3 -0.5 -2
    endloop
  endfacet
  facet normal 0 1 -0
    outer loop
      vertex 3.94868 -0.5 -2
      vertex 2.04132 -0.5 3.75
      vertex 3.94868 -0.5 3.75
    endloop
  endfacet
  facet normal 0 1 0
    outer loop
      vertex 2.04132 -0.5 3.75
      vertex 3.94868 -0.5 -2
      vertex 2.04132 -0.5 -2
    endloop
  endfacet
  facet normal 0 1 -0
    outer loop
      vertex 1.165 -2.01784 -2
      vertex -1.165 -2.01784 3.75
      vertex 1.165 -2.01784 3.75
    endloop
  endfacet
  facet normal 0 1 0
    outer loop
      vertex -1.165 -2.01784 3.75
      vertex 1.165 -2.01784 -2
      vertex -1.165 -2.01784 -2
    endloop
  endfacet
  facet normal -0.866027 0.499998 0
    outer loop
      vertex 1.165 -2.01784 -2
      vertex 2.04132 -0.5 3.75
      vertex 2.04132 -0.5 -2
    endloop
  endfacet
  facet normal -0.866027 0.499998 0
    outer loop
      vertex 2.04132 -0.5 3.75
      vertex 1.165 -2.01784 -2
      vertex 1.165 -2.01784 3.75
    endloop
  endfacet
  facet normal 0 -1 0
    outer loop
      vertex -1.165 2.01784 -2
      vertex 1.165 2.01784 3.75
      vertex -1.165 2.01784 3.75
    endloop
  endfacet
  facet normal 0 -1 -0
    outer loop
      vertex 1.165 2.01784 3.75
      vertex -1.165 2.01784 -2
      vertex 1.165 2.01784 -2
    endloop
  endfacet
  facet normal -0.866027 -0.499998 0
    outer loop
      vertex 2.04132 0.5 -2
      vertex 1.165 2.01784 3.75
      vertex 1.165 2.01784 -2
    endloop
  endfacet
  facet normal -0.866027 -0.499998 0
    outer loop
      vertex 1.165 2.01784 3.75
      vertex 2.04132 0.5 -2
      vertex 2.04132 0.5 3.75
    endloop
  endfacet
  facet normal 0.866027 -0.499998 0
    outer loop
      vertex -2.04132 0.5 3.75
      vertex -1.165 2.01784 -2
      vertex -1.165 2.01784 3.75
    endloop
  endfacet
  facet normal 0.866027 -0.499998 0
    outer loop
      vertex -1.165 2.01784 -2
      vertex -2.04132 0.5 3.75
      vertex -2.04132 0.5 -2
    endloop
  endfacet
  facet normal 0.866027 0.499998 0
    outer loop
      vertex -1.165 -2.01784 3.75
      vertex -2.04132 -0.5 -2
      vertex -2.04132 -0.5 3.75
    endloop
  endfacet
  facet normal 0.866027 0.499998 0
    outer loop
      vertex -2.04132 -0.5 -2
      vertex -1.165 -2.01784 3.75
      vertex -1.165 -2.01784 -2
    endloop
  endfacet
  facet normal 0 -1 0
    outer loop
      vertex 8.05132 0.5 -2
      vertex 9.93868 0.5 3.75
      vertex 8.05132 0.5 3.75
    endloop
  endfacet
  facet normal 0 -1 -0
    outer loop
      vertex 9.93868 0.5 3.75
      vertex 8.05132 0.5 -2
      vertex 9.93868 0.5 -2
    endloop
  endfacet
  facet normal 0 1 -0
    outer loop
      vertex 9.93868 -0.5 -2
      vertex 8.05132 -0.5 3.75
      vertex 9.93868 -0.5 3.75
    endloop
  endfacet
  facet normal 0 1 0
    outer loop
      vertex 8.05132 -0.5 3.75
      vertex 9.93868 -0.5 -2
      vertex 8.05132 -0.5 -2
    endloop
  endfacet
  facet normal 0 1 -0
    outer loop
      vertex 7.17 -2.0265 -2
      vertex 4.83 -2.0265 3.75
      vertex 7.17 -2.0265 3.75
    endloop
  endfacet
  facet normal 0 1 0
    outer loop
      vertex 4.83 -2.0265 3.75
      vertex 7.17 -2.0265 -2
      vertex 4.83 -2.0265 -2
    endloop
  endfacet
  facet normal -0.866027 0.499998 0
    outer loop
      vertex 7.17 -2.0265 -2
      vertex 8.05132 -0.5 3.75
      vertex 8.05132 -0.5 -2
    endloop
  endfacet
  facet normal -0.866027 0.499998 0
    outer loop
      vertex 8.05132 -0.5 3.75
      vertex 7.17 -2.0265 -2
      vertex 7.17 -2.0265 3.75
    endloop
  endfacet
  facet normal 0 -1 0
    outer loop
      vertex 4.83 2.0265 -2
      vertex 7.17 2.0265 3.75
      vertex 4.83 2.0265 3.75
    endloop
  endfacet
  facet normal 0 -1 -0
    outer loop
      vertex 7.17 2.0265 3.75
      vertex 4.83 2.0265 -2
      vertex 7.17 2.0265 -2
    endloop
  endfacet
  facet normal -0.866027 -0.499998 0
    outer loop
      vertex 8.05132 0.5 -2
      vertex 7.17 2.0265 3.75
      vertex 7.17 2.0265 -2
    endloop
  endfacet
  facet normal -0.866027 -0.499998 0
    outer loop
      vertex 7.17 2.0265 3.75
      vertex 8.05132 0.5 -2
      vertex 8.05132 0.5 3.75
    endloop
  endfacet
  facet normal 0.866027 -0.499998 0
    outer loop
      vertex 3.94868 0.5 3.75
      vertex 4.83 2.0265 -2
      vertex 4.83 2.0265 3.75
    endloop
  endfacet
  facet normal 0.866027 -0.499998 0
    outer loop
      vertex 4.83 2.0265 -2
      vertex 3.94868 0.5 3.75
      vertex 3.94868 0.5 -2
    endloop
  endfacet
  facet normal 0.866027 0.499998 0
    outer loop
      vertex 4.83 -2.0265 3.75
      vertex 3.94868 -0.5 -2
      vertex 3.94868 -0.5 3.75
    endloop
  endfacet
  facet normal 0.866027 0.499998 0
    outer loop
      vertex 3.94868 -0.5 -2
      vertex 4.83 -2.0265 3.75
      vertex 4.83 -2.0265 -2
    endloop
  endfacet
  facet normal 0 -1 0
    outer loop
      vertex 14.0613 0.5 -2
      vertex 15.9287 0.5 3.75
      vertex 14.0613 0.5 3.75
    endloop
  endfacet
  facet normal 0 -1 -0
    outer loop
      vertex 15.9287 0.5 3.75
      vertex 14.0613 0.5 -2
      vertex 15.9287 0.5 -2
    endloop
  endfacet
  facet normal 0 1 -0
    outer loop
      vertex 15.9287 -0.5 -2
      vertex 14.0613 -0.5 3.75
      vertex 15.9287 -0.5 3.75
    endloop
  endfacet
  facet normal 0 1 0
    outer loop
      vertex 14.0613 -0.5 3.75
      vertex 15.9287 -0.5 -2
      vertex 14.0613 -0.5 -2
    endloop
  endfacet
  facet normal 0 1 -0
    outer loop
      vertex 13.175 -2.03516 -2
      vertex 10.825 -2.03516 3.75
      vertex 13.175 -2.03516 3.75
    endloop
  endfacet
  facet normal 0 1 0
    outer loop
      vertex 10.825 -2.03516 3.75
      vertex 13.175 -2.03516 -2
      vertex 10.825 -2.03516 -2
    endloop
  endfacet
  facet normal -0.866032 0.499989 0
    outer loop
      vertex 13.175 -2.03516 -2
      vertex 14.0613 -0.5 3.75
      vertex 14.0613 -0.5 -2
    endloop
  endfacet
  facet normal -0.866032 0.499989 0
    outer loop
      vertex 14.0613 -0.5 3.75
      vertex 13.175 -2.03516 -2
      vertex 13.175 -2.03516 3.75
    endloop
  endfacet
  facet normal 0 -1 0
    outer loop
      vertex 10.825 2.03516 -2
      vertex 13.175 2.03516 3.75
      vertex 10.825 2.03516 3.75
    endloop
  endfacet
  facet normal 0 -1 -0
    outer loop
      vertex 13.175 2.03516 3.75
      vertex 10.825 2.03516 -2
      vertex 13.175 2.03516 -2
    endloop
  endfacet
  facet normal -0.866032 -0.499989 0
    outer loop
      vertex 14.0613 0.5 -2
      vertex 13.175 2.03516 3.75
      vertex 13.175 2.03516 -2
    endloop
  endfacet
  facet normal -0.866032 -0.499989 0
    outer loop
      vertex 13.175 2.03516 3.75
      vertex 14.0613 0.5 -2
      vertex 14.0613 0.5 3.75
    endloop
  endfacet
  facet normal 0.866027 -0.499998 0
    outer loop
      vertex 9.93868 0.5 3.75
      vertex 10.825 2.03516 -2
      vertex 10.825 2.03516 3.75
    endloop
  endfacet
  facet normal 0.866027 -0.499998 0
    outer loop
      vertex 10.825 2.03516 -2
      vertex 9.93868 0.5 3.75
      vertex 9.93868 0.5 -2
    endloop
  endfacet
  facet normal 0.866027 0.499998 0
    outer loop
      vertex 10.825 -2.03516 3.75
      vertex 9.93868 -0.5 -2
      vertex 9.93868 -0.5 3.75
    endloop
  endfacet
  facet normal 0.866027 0.499998 0
    outer loop
      vertex 9.93868 -0.5 -2
      vertex 10.825 -2.03516 3.75
      vertex 10.825 -2.03516 -2
    endloop
  endfacet
  facet normal 1 0 0
    outer loop
      vertex 21 -0.5 3.75
      vertex 21 -5 3.75
      vertex 21 -0.5 -2
    endloop
  endfacet
  facet normal 1 0 0
    outer loop
      vertex 21 0.5 -2
      vertex 21 5 3.75
      vertex 21 0.5 3.75
    endloop
  endfacet
  facet normal 1 0 0
    outer loop
      vertex 21 5 3.75
      vertex 21 0.5 -2
      vertex 21 5 -3.75
    endloop
  endfacet
  facet normal 1 -0 0
    outer loop
      vertex 21 -0.5 -2
      vertex 21 5 -3.75
      vertex 21 0.5 -2
    endloop
  endfacet
  facet normal 1 0 0
    outer loop
      vertex 21 -0.5 -2
      vertex 21 -5 -3.75
      vertex 21 5 -3.75
    endloop
  endfacet
  facet normal 1 0 0
    outer loop
      vertex 21 -5 -3.75
      vertex 21 -0.5 -2
      vertex 21 -5 3.75
    endloop
  endfacet
  facet normal 0 -1 0
    outer loop
      vertex 20.0713 0.5 -2
      vertex 21 0.5 3.75
      vertex 20.0713 0.5 3.75
    endloop
  endfacet
  facet normal 0 -1 -0
    outer loop
      vertex 21 0.5 3.75
      vertex 20.0713 0.5 -2
      vertex 21 0.5 -2
    endloop
  endfacet
  facet normal 0 1 -0
    outer loop
      vertex 21 -0.5 -2
      vertex 20.0713 -0.5 3.75
      vertex 21 -0.5 3.75
    endloop
  endfacet
  facet normal 0 1 0
    outer loop
      vertex 20.0713 -0.5 3.75
      vertex 21 -0.5 -2
      vertex 20.0713 -0.5 -2
    endloop
  endfacet
  facet normal 0 1 -0
    outer loop
      vertex 19.18 -2.04382 -2
      vertex 16.82 -2.04382 3.75
      vertex 19.18 -2.04382 3.75
    endloop
  endfacet
  facet normal 0 1 0
    outer loop
      vertex 16.82 -2.04382 3.75
      vertex 19.18 -2.04382 -2
      vertex 16.82 -2.04382 -2
    endloop
  endfacet
  facet normal -0.866031 0.49999 0
    outer loop
      vertex 19.18 -2.04382 -2
      vertex 20.0713 -0.5 3.75
      vertex 20.0713 -0.5 -2
    endloop
  endfacet
  facet normal -0.866031 0.49999 0
    outer loop
      vertex 20.0713 -0.5 3.75
      vertex 19.18 -2.04382 -2
      vertex 19.18 -2.04382 3.75
    endloop
  endfacet
  facet normal 0 -1 0
    outer loop
      vertex 16.82 2.04382 -2
      vertex 19.18 2.04382 3.75
      vertex 16.82 2.04382 3.75
    endloop
  endfacet
  facet normal 0 -1 -0
    outer loop
      vertex 19.18 2.04382 3.75
      vertex 16.82 2.04382 -2
      vertex 19.18 2.04382 -2
    endloop
  endfacet
  facet normal -0.866031 -0.49999 0
    outer loop
      vertex 20.0713 0.5 -2
      vertex 19.18 2.04382 3.75
      vertex 19.18 2.04382 -2
    endloop
  endfacet
  facet normal -0.866031 -0.49999 0
    outer loop
      vertex 19.18 2.04382 3.75
      vertex 20.0713 0.5 -2
      vertex 20.0713 0.5 3.75
    endloop
  endfacet
  facet normal 0.866031 -0.49999 0
    outer loop
      vertex 15.9287 0.5 3.75
      vertex 16.82 2.04382 -2
      vertex 16.82 2.04382 3.75
    endloop
  endfacet
  facet normal 0.866031 -0.49999 0
    outer loop
      vertex 16.82 2.04382 -2
      vertex 15.9287 0.5 3.75
      vertex 15.9287 0.5 -2
    endloop
  endfacet
  facet normal 0.866031 0.49999 0
    outer loop
      vertex 16.82 -2.04382 3.75
      vertex 15.9287 -0.5 -2
      vertex 15.9287 -0.5 3.75
    endloop
  endfacet
  facet normal 0.866031 0.49999 0
    outer loop
      vertex 15.9287 -0.5 -2
      vertex 16.82 -2.04382 3.75
      vertex 16.82 -2.04382 -2
    endloop
  endfacet
endsolid OpenSCAD_Model
